<?xml version="1.0" encoding="UTF-8" standalone="no"?>
<!-- Created with Inkscape (http://www.inkscape.org/) -->

<svg
   xmlns:dc="http://purl.org/dc/elements/1.1/"
   xmlns:cc="http://creativecommons.org/ns#"
   xmlns:rdf="http://www.w3.org/1999/02/22-rdf-syntax-ns#"
   xmlns:svg="http://www.w3.org/2000/svg"
   xmlns="http://www.w3.org/2000/svg"
   xmlns:sodipodi="http://sodipodi.sourceforge.net/DTD/sodipodi-0.dtd"
   xmlns:inkscape="http://www.inkscape.org/namespaces/inkscape"
   width="210mm"
   height="297mm"
   viewBox="0 0 210 297"
   version="1.1"
   id="svg8"
   inkscape:version="0.92.3 (2405546, 2018-03-11)"
   sodipodi:docname="Diagrama.svg"
   inkscape:export-filename="/data/UFG/Sistemas Distribuídos/Repositório/Projeto Final/Diagrama.svg.png"
   inkscape:export-xdpi="31.466276"
   inkscape:export-ydpi="31.466276">
  <defs
     id="defs2">
    <marker
       inkscape:stockid="Arrow2Lend"
       orient="auto"
       refY="0"
       refX="0"
       id="marker8960"
       style="overflow:visible"
       inkscape:isstock="true">
      <path
         inkscape:connector-curvature="0"
         id="path8958"
         style="fill:#000000;fill-opacity:1;fill-rule:evenodd;stroke:#000000;stroke-width:0.625;stroke-linejoin:round;stroke-opacity:1"
         d="M 8.7185878,4.0337352 -2.2072895,0.01601326 8.7185884,-4.0017078 c -1.7454984,2.3720609 -1.7354408,5.6174519 -6e-7,8.035443 z"
         transform="matrix(-1.1,0,0,-1.1,-1.1,0)" />
    </marker>
    <marker
       inkscape:isstock="true"
       style="overflow:visible"
       id="marker8728"
       refX="0"
       refY="0"
       orient="auto"
       inkscape:stockid="Arrow2Lstart">
      <path
         inkscape:connector-curvature="0"
         transform="matrix(1.1,0,0,1.1,1.1,0)"
         d="M 8.7185878,4.0337352 -2.2072895,0.01601326 8.7185884,-4.0017078 c -1.7454984,2.3720609 -1.7354408,5.6174519 -6e-7,8.035443 z"
         style="fill:#000000;fill-opacity:1;fill-rule:evenodd;stroke:#000000;stroke-width:0.625;stroke-linejoin:round;stroke-opacity:1"
         id="path8726" />
    </marker>
    <marker
       inkscape:isstock="true"
       style="overflow:visible"
       id="marker21989"
       refX="0"
       refY="0"
       orient="auto"
       inkscape:stockid="Arrow2Lstart">
      <path
         inkscape:connector-curvature="0"
         transform="matrix(1.1,0,0,1.1,1.1,0)"
         d="M 8.7185878,4.0337352 -2.2072895,0.01601326 8.7185884,-4.0017078 c -1.7454984,2.3720609 -1.7354408,5.6174519 -6e-7,8.035443 z"
         style="fill:#000000;fill-opacity:1;fill-rule:evenodd;stroke:#000000;stroke-width:0.625;stroke-linejoin:round;stroke-opacity:1"
         id="path21987" />
    </marker>
    <marker
       inkscape:isstock="true"
       style="overflow:visible"
       id="marker19325"
       refX="0"
       refY="0"
       orient="auto"
       inkscape:stockid="Arrow2Lend">
      <path
         transform="matrix(-1.1,0,0,-1.1,-1.1,0)"
         d="M 8.7185878,4.0337352 -2.2072895,0.01601326 8.7185884,-4.0017078 c -1.7454984,2.3720609 -1.7354408,5.6174519 -6e-7,8.035443 z"
         style="fill:#000000;fill-opacity:1;fill-rule:evenodd;stroke:#000000;stroke-width:0.625;stroke-linejoin:round;stroke-opacity:1"
         id="path19323"
         inkscape:connector-curvature="0" />
    </marker>
    <marker
       inkscape:stockid="Arrow2Lstart"
       orient="auto"
       refY="0"
       refX="0"
       id="marker19135"
       style="overflow:visible"
       inkscape:isstock="true"
       inkscape:collect="always">
      <path
         id="path19133"
         style="fill:#000000;fill-opacity:1;fill-rule:evenodd;stroke:#000000;stroke-width:0.625;stroke-linejoin:round;stroke-opacity:1"
         d="M 8.7185878,4.0337352 -2.2072895,0.01601326 8.7185884,-4.0017078 c -1.7454984,2.3720609 -1.7354408,5.6174519 -6e-7,8.035443 z"
         transform="matrix(1.1,0,0,1.1,1.1,0)"
         inkscape:connector-curvature="0" />
    </marker>
    <marker
       inkscape:stockid="Arrow2Lend"
       orient="auto"
       refY="0"
       refX="0"
       id="marker17125"
       style="overflow:visible"
       inkscape:isstock="true">
      <path
         inkscape:connector-curvature="0"
         id="path17123"
         style="fill:#000000;fill-opacity:1;fill-rule:evenodd;stroke:#000000;stroke-width:0.625;stroke-linejoin:round;stroke-opacity:1"
         d="M 8.7185878,4.0337352 -2.2072895,0.01601326 8.7185884,-4.0017078 c -1.7454984,2.3720609 -1.7354408,5.6174519 -6e-7,8.035443 z"
         transform="matrix(-1.1,0,0,-1.1,-1.1,0)" />
    </marker>
    <marker
       inkscape:isstock="true"
       style="overflow:visible"
       id="marker16947"
       refX="0"
       refY="0"
       orient="auto"
       inkscape:stockid="Arrow2Lstart">
      <path
         inkscape:connector-curvature="0"
         transform="matrix(1.1,0,0,1.1,1.1,0)"
         d="M 8.7185878,4.0337352 -2.2072895,0.01601326 8.7185884,-4.0017078 c -1.7454984,2.3720609 -1.7354408,5.6174519 -6e-7,8.035443 z"
         style="fill:#000000;fill-opacity:1;fill-rule:evenodd;stroke:#000000;stroke-width:0.625;stroke-linejoin:round;stroke-opacity:1"
         id="path16945" />
    </marker>
    <marker
       inkscape:isstock="true"
       style="overflow:visible"
       id="marker15393"
       refX="0"
       refY="0"
       orient="auto"
       inkscape:stockid="Arrow2Lend"
       inkscape:collect="always">
      <path
         transform="matrix(-1.1,0,0,-1.1,-1.1,0)"
         d="M 8.7185878,4.0337352 -2.2072895,0.01601326 8.7185884,-4.0017078 c -1.7454984,2.3720609 -1.7354408,5.6174519 -6e-7,8.035443 z"
         style="fill:#000000;fill-opacity:1;fill-rule:evenodd;stroke:#000000;stroke-width:0.625;stroke-linejoin:round;stroke-opacity:1"
         id="path15391"
         inkscape:connector-curvature="0" />
    </marker>
    <marker
       inkscape:stockid="Arrow2Lstart"
       orient="auto"
       refY="0"
       refX="0"
       id="marker15227"
       style="overflow:visible"
       inkscape:isstock="true"
       inkscape:collect="always">
      <path
         id="path15225"
         style="fill:#000000;fill-opacity:1;fill-rule:evenodd;stroke:#000000;stroke-width:0.625;stroke-linejoin:round;stroke-opacity:1"
         d="M 8.7185878,4.0337352 -2.2072895,0.01601326 8.7185884,-4.0017078 c -1.7454984,2.3720609 -1.7354408,5.6174519 -6e-7,8.035443 z"
         transform="matrix(1.1,0,0,1.1,1.1,0)"
         inkscape:connector-curvature="0" />
    </marker>
    <marker
       inkscape:stockid="Arrow2Lend"
       orient="auto"
       refY="0"
       refX="0"
       id="marker14513"
       style="overflow:visible"
       inkscape:isstock="true">
      <path
         inkscape:connector-curvature="0"
         id="path14511"
         style="fill:#000000;fill-opacity:1;fill-rule:evenodd;stroke:#000000;stroke-width:0.625;stroke-linejoin:round;stroke-opacity:1"
         d="M 8.7185878,4.0337352 -2.2072895,0.01601326 8.7185884,-4.0017078 c -1.7454984,2.3720609 -1.7354408,5.6174519 -6e-7,8.035443 z"
         transform="matrix(-1.1,0,0,-1.1,-1.1,0)" />
    </marker>
    <marker
       inkscape:isstock="true"
       style="overflow:visible"
       id="marker14359"
       refX="0"
       refY="0"
       orient="auto"
       inkscape:stockid="Arrow2Lstart">
      <path
         inkscape:connector-curvature="0"
         transform="matrix(1.1,0,0,1.1,1.1,0)"
         d="M 8.7185878,4.0337352 -2.2072895,0.01601326 8.7185884,-4.0017078 c -1.7454984,2.3720609 -1.7354408,5.6174519 -6e-7,8.035443 z"
         style="fill:#000000;fill-opacity:1;fill-rule:evenodd;stroke:#000000;stroke-width:0.625;stroke-linejoin:round;stroke-opacity:1"
         id="path14357" />
    </marker>
    <marker
       inkscape:isstock="true"
       style="overflow:visible"
       id="marker13668"
       refX="0"
       refY="0"
       orient="auto"
       inkscape:stockid="Arrow2Lend"
       inkscape:collect="always">
      <path
         transform="matrix(-1.1,0,0,-1.1,-1.1,0)"
         d="M 8.7185878,4.0337352 -2.2072895,0.01601326 8.7185884,-4.0017078 c -1.7454984,2.3720609 -1.7354408,5.6174519 -6e-7,8.035443 z"
         style="fill:#000000;fill-opacity:1;fill-rule:evenodd;stroke:#000000;stroke-width:0.625;stroke-linejoin:round;stroke-opacity:1"
         id="path13666"
         inkscape:connector-curvature="0" />
    </marker>
    <marker
       inkscape:stockid="Arrow2Lstart"
       orient="auto"
       refY="0"
       refX="0"
       id="marker13526"
       style="overflow:visible"
       inkscape:isstock="true"
       inkscape:collect="always">
      <path
         id="path13524"
         style="fill:#000000;fill-opacity:1;fill-rule:evenodd;stroke:#000000;stroke-width:0.625;stroke-linejoin:round;stroke-opacity:1"
         d="M 8.7185878,4.0337352 -2.2072895,0.01601326 8.7185884,-4.0017078 c -1.7454984,2.3720609 -1.7354408,5.6174519 -6e-7,8.035443 z"
         transform="matrix(1.1,0,0,1.1,1.1,0)"
         inkscape:connector-curvature="0" />
    </marker>
    <marker
       inkscape:isstock="true"
       style="overflow:visible"
       id="marker5791"
       refX="0.0"
       refY="0.0"
       orient="auto"
       inkscape:stockid="Arrow2Lstart">
      <path
         transform="scale(1.1) translate(1,0)"
         d="M 8.7185878,4.0337352 L -2.2072895,0.016013256 L 8.7185884,-4.0017078 C 6.9730900,-1.6296469 6.9831476,1.6157441 8.7185878,4.0337352 z "
         style="fill-rule:evenodd;stroke-width:0.625;stroke-linejoin:round;stroke:#000000;stroke-opacity:1;fill:#000000;fill-opacity:1"
         id="path5789" />
    </marker>
    <marker
       inkscape:isstock="true"
       style="overflow:visible"
       id="marker5709"
       refX="0.0"
       refY="0.0"
       orient="auto"
       inkscape:stockid="Arrow2Lstart">
      <path
         transform="scale(1.1) translate(1,0)"
         d="M 8.7185878,4.0337352 L -2.2072895,0.016013256 L 8.7185884,-4.0017078 C 6.9730900,-1.6296469 6.9831476,1.6157441 8.7185878,4.0337352 z "
         style="fill-rule:evenodd;stroke-width:0.625;stroke-linejoin:round;stroke:#000000;stroke-opacity:1;fill:#000000;fill-opacity:1"
         id="path5707" />
    </marker>
    <marker
       inkscape:isstock="true"
       style="overflow:visible"
       id="marker5699"
       refX="0.0"
       refY="0.0"
       orient="auto"
       inkscape:stockid="Arrow2Lstart">
      <path
         transform="scale(1.1) translate(1,0)"
         d="M 8.7185878,4.0337352 L -2.2072895,0.016013256 L 8.7185884,-4.0017078 C 6.9730900,-1.6296469 6.9831476,1.6157441 8.7185878,4.0337352 z "
         style="fill-rule:evenodd;stroke-width:0.625;stroke-linejoin:round;stroke:#000000;stroke-opacity:1;fill:#000000;fill-opacity:1"
         id="path5697" />
    </marker>
    <marker
       inkscape:stockid="Arrow2Lstart"
       orient="auto"
       refY="0.0"
       refX="0.0"
       id="Arrow2Lstart"
       style="overflow:visible"
       inkscape:isstock="true"
       inkscape:collect="always">
      <path
         id="path4559"
         style="fill-rule:evenodd;stroke-width:0.625;stroke-linejoin:round;stroke:#000000;stroke-opacity:1;fill:#000000;fill-opacity:1"
         d="M 8.7185878,4.0337352 L -2.2072895,0.016013256 L 8.7185884,-4.0017078 C 6.9730900,-1.6296469 6.9831476,1.6157441 8.7185878,4.0337352 z "
         transform="scale(1.1) translate(1,0)" />
    </marker>
    <marker
       inkscape:stockid="Arrow2Lend"
       orient="auto"
       refY="0.0"
       refX="0.0"
       id="marker5537"
       style="overflow:visible;"
       inkscape:isstock="true">
      <path
         id="path5535"
         style="fill-rule:evenodd;stroke-width:0.625;stroke-linejoin:round;stroke:#000000;stroke-opacity:1;fill:#000000;fill-opacity:1"
         d="M 8.7185878,4.0337352 L -2.2072895,0.016013256 L 8.7185884,-4.0017078 C 6.9730900,-1.6296469 6.9831476,1.6157441 8.7185878,4.0337352 z "
         transform="scale(1.1) rotate(180) translate(1,0)" />
    </marker>
    <marker
       inkscape:stockid="Arrow2Lend"
       orient="auto"
       refY="0.0"
       refX="0.0"
       id="marker5467"
       style="overflow:visible;"
       inkscape:isstock="true">
      <path
         id="path5465"
         style="fill-rule:evenodd;stroke-width:0.625;stroke-linejoin:round;stroke:#000000;stroke-opacity:1;fill:#000000;fill-opacity:1"
         d="M 8.7185878,4.0337352 L -2.2072895,0.016013256 L 8.7185884,-4.0017078 C 6.9730900,-1.6296469 6.9831476,1.6157441 8.7185878,4.0337352 z "
         transform="scale(1.1) rotate(180) translate(1,0)" />
    </marker>
    <marker
       inkscape:stockid="Arrow2Lend"
       orient="auto"
       refY="0.0"
       refX="0.0"
       id="marker5409"
       style="overflow:visible;"
       inkscape:isstock="true">
      <path
         id="path5407"
         style="fill-rule:evenodd;stroke-width:0.625;stroke-linejoin:round;stroke:#000000;stroke-opacity:1;fill:#000000;fill-opacity:1"
         d="M 8.7185878,4.0337352 L -2.2072895,0.016013256 L 8.7185884,-4.0017078 C 6.9730900,-1.6296469 6.9831476,1.6157441 8.7185878,4.0337352 z "
         transform="scale(1.1) rotate(180) translate(1,0)" />
    </marker>
    <marker
       inkscape:isstock="true"
       style="overflow:visible"
       id="marker5273"
       refX="0.0"
       refY="0.0"
       orient="auto"
       inkscape:stockid="Arrow1Lstart">
      <path
         transform="scale(0.8) translate(12.5,0)"
         style="fill-rule:evenodd;stroke:#000000;stroke-width:1pt;stroke-opacity:1;fill:#000000;fill-opacity:1"
         d="M 0.0,0.0 L 5.0,-5.0 L -12.5,0.0 L 5.0,5.0 L 0.0,0.0 z "
         id="path5271" />
    </marker>
    <marker
       inkscape:isstock="true"
       style="overflow:visible"
       id="marker5221"
       refX="0.0"
       refY="0.0"
       orient="auto"
       inkscape:stockid="Arrow1Lstart">
      <path
         transform="scale(0.8) translate(12.5,0)"
         style="fill-rule:evenodd;stroke:#000000;stroke-width:1pt;stroke-opacity:1;fill:#000000;fill-opacity:1"
         d="M 0.0,0.0 L 5.0,-5.0 L -12.5,0.0 L 5.0,5.0 L 0.0,0.0 z "
         id="path5219" />
    </marker>
    <marker
       inkscape:isstock="true"
       style="overflow:visible"
       id="marker5175"
       refX="0.0"
       refY="0.0"
       orient="auto"
       inkscape:stockid="Arrow1Lstart">
      <path
         transform="scale(0.8) translate(12.5,0)"
         style="fill-rule:evenodd;stroke:#000000;stroke-width:1pt;stroke-opacity:1;fill:#000000;fill-opacity:1"
         d="M 0.0,0.0 L 5.0,-5.0 L -12.5,0.0 L 5.0,5.0 L 0.0,0.0 z "
         id="path5173" />
    </marker>
    <marker
       inkscape:isstock="true"
       style="overflow:visible;"
       id="marker4875"
       refX="0.0"
       refY="0.0"
       orient="auto"
       inkscape:stockid="Arrow2Lend"
       inkscape:collect="always">
      <path
         transform="scale(1.1) rotate(180) translate(1,0)"
         d="M 8.7185878,4.0337352 L -2.2072895,0.016013256 L 8.7185884,-4.0017078 C 6.9730900,-1.6296469 6.9831476,1.6157441 8.7185878,4.0337352 z "
         style="fill-rule:evenodd;stroke-width:0.625;stroke-linejoin:round;stroke:#000000;stroke-opacity:1;fill:#000000;fill-opacity:1"
         id="path4873" />
    </marker>
    <marker
       inkscape:isstock="true"
       style="overflow:visible;"
       id="marker4847"
       refX="0.0"
       refY="0.0"
       orient="auto"
       inkscape:stockid="Arrow2Lend">
      <path
         transform="scale(1.1) rotate(180) translate(1,0)"
         d="M 8.7185878,4.0337352 L -2.2072895,0.016013256 L 8.7185884,-4.0017078 C 6.9730900,-1.6296469 6.9831476,1.6157441 8.7185878,4.0337352 z "
         style="fill-rule:evenodd;stroke-width:0.625;stroke-linejoin:round;stroke:#000000;stroke-opacity:1;fill:#000000;fill-opacity:1"
         id="path4845" />
    </marker>
    <marker
       inkscape:isstock="true"
       style="overflow:visible;"
       id="marker4825"
       refX="0.0"
       refY="0.0"
       orient="auto"
       inkscape:stockid="Arrow2Lend">
      <path
         transform="scale(1.1) rotate(180) translate(1,0)"
         d="M 8.7185878,4.0337352 L -2.2072895,0.016013256 L 8.7185884,-4.0017078 C 6.9730900,-1.6296469 6.9831476,1.6157441 8.7185878,4.0337352 z "
         style="fill-rule:evenodd;stroke-width:0.625;stroke-linejoin:round;stroke:#000000;stroke-opacity:1;fill:#000000;fill-opacity:1"
         id="path4823" />
    </marker>
    <marker
       inkscape:isstock="true"
       style="overflow:visible"
       id="marker5699-3"
       refX="0"
       refY="0"
       orient="auto"
       inkscape:stockid="Arrow2Lstart"
       inkscape:collect="always">
      <path
         inkscape:connector-curvature="0"
         transform="matrix(1.1,0,0,1.1,1.1,0)"
         d="M 8.7185878,4.0337352 -2.2072895,0.01601326 8.7185884,-4.0017078 c -1.7454984,2.3720609 -1.7354408,5.6174519 -6e-7,8.035443 z"
         style="fill:#000000;fill-opacity:1;fill-rule:evenodd;stroke:#000000;stroke-width:0.625;stroke-linejoin:round;stroke-opacity:1"
         id="path5697-6" />
    </marker>
    <marker
       inkscape:stockid="Arrow2Lend"
       orient="auto"
       refY="0"
       refX="0"
       id="marker5409-7"
       style="overflow:visible"
       inkscape:isstock="true"
       inkscape:collect="always">
      <path
         inkscape:connector-curvature="0"
         id="path5407-5"
         style="fill:#000000;fill-opacity:1;fill-rule:evenodd;stroke:#000000;stroke-width:0.625;stroke-linejoin:round;stroke-opacity:1"
         d="M 8.7185878,4.0337352 -2.2072895,0.01601326 8.7185884,-4.0017078 c -1.7454984,2.3720609 -1.7354408,5.6174519 -6e-7,8.035443 z"
         transform="matrix(-1.1,0,0,-1.1,-1.1,0)" />
    </marker>
    <marker
       inkscape:isstock="true"
       style="overflow:visible"
       id="marker5699-9"
       refX="0"
       refY="0"
       orient="auto"
       inkscape:stockid="Arrow2Lstart"
       inkscape:collect="always">
      <path
         inkscape:connector-curvature="0"
         transform="matrix(1.1,0,0,1.1,1.1,0)"
         d="M 8.7185878,4.0337352 -2.2072895,0.01601326 8.7185884,-4.0017078 c -1.7454984,2.3720609 -1.7354408,5.6174519 -6e-7,8.035443 z"
         style="fill:#000000;fill-opacity:1;fill-rule:evenodd;stroke:#000000;stroke-width:0.625;stroke-linejoin:round;stroke-opacity:1"
         id="path5697-8" />
    </marker>
    <marker
       inkscape:stockid="Arrow2Lend"
       orient="auto"
       refY="0"
       refX="0"
       id="marker5409-72"
       style="overflow:visible"
       inkscape:isstock="true"
       inkscape:collect="always">
      <path
         inkscape:connector-curvature="0"
         id="path5407-8"
         style="fill:#000000;fill-opacity:1;fill-rule:evenodd;stroke:#000000;stroke-width:0.625;stroke-linejoin:round;stroke-opacity:1"
         d="M 8.7185878,4.0337352 -2.2072895,0.01601326 8.7185884,-4.0017078 c -1.7454984,2.3720609 -1.7354408,5.6174519 -6e-7,8.035443 z"
         transform="matrix(-1.1,0,0,-1.1,-1.1,0)" />
    </marker>
    <marker
       inkscape:isstock="true"
       style="overflow:visible"
       id="marker5699-9-9"
       refX="0"
       refY="0"
       orient="auto"
       inkscape:stockid="Arrow2Lstart">
      <path
         inkscape:connector-curvature="0"
         transform="matrix(1.1,0,0,1.1,1.1,0)"
         d="M 8.7185878,4.0337352 -2.2072895,0.01601326 8.7185884,-4.0017078 c -1.7454984,2.3720609 -1.7354408,5.6174519 -6e-7,8.035443 z"
         style="fill:#000000;fill-opacity:1;fill-rule:evenodd;stroke:#000000;stroke-width:0.625;stroke-linejoin:round;stroke-opacity:1"
         id="path5697-8-9" />
    </marker>
    <marker
       inkscape:stockid="Arrow2Lend"
       orient="auto"
       refY="0"
       refX="0"
       id="marker5409-72-6"
       style="overflow:visible"
       inkscape:isstock="true">
      <path
         inkscape:connector-curvature="0"
         id="path5407-8-0"
         style="fill:#000000;fill-opacity:1;fill-rule:evenodd;stroke:#000000;stroke-width:0.625;stroke-linejoin:round;stroke-opacity:1"
         d="M 8.7185878,4.0337352 -2.2072895,0.01601326 8.7185884,-4.0017078 c -1.7454984,2.3720609 -1.7354408,5.6174519 -6e-7,8.035443 z"
         transform="matrix(-1.1,0,0,-1.1,-1.1,0)" />
    </marker>
    <marker
       inkscape:isstock="true"
       style="overflow:visible"
       id="marker5699-9-7"
       refX="0"
       refY="0"
       orient="auto"
       inkscape:stockid="Arrow2Lstart"
       inkscape:collect="always">
      <path
         inkscape:connector-curvature="0"
         transform="matrix(1.1,0,0,1.1,1.1,0)"
         d="M 8.7185878,4.0337352 -2.2072895,0.01601326 8.7185884,-4.0017078 c -1.7454984,2.3720609 -1.7354408,5.6174519 -6e-7,8.035443 z"
         style="fill:#000000;fill-opacity:1;fill-rule:evenodd;stroke:#000000;stroke-width:0.625;stroke-linejoin:round;stroke-opacity:1"
         id="path5697-8-6" />
    </marker>
    <marker
       inkscape:stockid="Arrow2Lend"
       orient="auto"
       refY="0"
       refX="0"
       id="marker5409-72-1"
       style="overflow:visible"
       inkscape:isstock="true"
       inkscape:collect="always">
      <path
         inkscape:connector-curvature="0"
         id="path5407-8-3"
         style="fill:#000000;fill-opacity:1;fill-rule:evenodd;stroke:#000000;stroke-width:0.625;stroke-linejoin:round;stroke-opacity:1"
         d="M 8.7185878,4.0337352 -2.2072895,0.01601326 8.7185884,-4.0017078 c -1.7454984,2.3720609 -1.7354408,5.6174519 -6e-7,8.035443 z"
         transform="matrix(-1.1,0,0,-1.1,-1.1,0)" />
    </marker>
  </defs>
  <sodipodi:namedview
     id="base"
     pagecolor="#ffffff"
     bordercolor="#666666"
     borderopacity="1.0"
     inkscape:pageopacity="0.0"
     inkscape:pageshadow="2"
     inkscape:zoom="0.24748737"
     inkscape:cx="-20.568071"
     inkscape:cy="788.26231"
     inkscape:document-units="mm"
     inkscape:current-layer="layer1"
     showgrid="false"
     showborder="false"
     inkscape:window-width="1366"
     inkscape:window-height="702"
     inkscape:window-x="0"
     inkscape:window-y="0"
     inkscape:window-maximized="1"
     inkscape:snap-global="false" />
  <metadata
     id="metadata5">
    <rdf:RDF>
      <cc:Work
         rdf:about="">
        <dc:format>image/svg+xml</dc:format>
        <dc:type
           rdf:resource="http://purl.org/dc/dcmitype/StillImage" />
        <dc:title />
      </cc:Work>
    </rdf:RDF>
  </metadata>
  <g
     inkscape:label="Layer 1"
     inkscape:groupmode="layer"
     id="layer1">
    <rect
       style="fill:#ffffff;stroke:#666666;stroke-width:1.48520482;stroke-miterlimit:4;stroke-dasharray:none"
       id="rect8122"
       width="169.98341"
       height="118.66767"
       x="-415.19681"
       y="75.49897" />
    <path
       id="path872"
       d="m 352.30746,82.241833 q 5.6521,0 10.56489,-1.02549 4.91279,-1.02548 7.75076,-3.02876 v 4.05425 q 0,1.64554 -2.4564,3.05261 -2.45639,1.407062 -6.67758,2.229832 -4.22118,0.82277 -9.18167,0.82277 -4.96049,0 -9.18167,-0.82277 -4.22118,-0.82277 -6.67757,-2.229832 -2.4564,-1.40707 -2.4564,-3.05261 v -4.05425 q 2.83797,2.00328 7.75076,3.02876 4.91279,1.02549 10.56488,1.02549 z m 0,18.315647 q 5.6521,0 10.56489,-1.025485 4.91279,-1.02549 7.75076,-3.02876 v 4.054245 q 0,1.64554 -2.4564,3.05261 -2.45639,1.40705 -6.67758,2.22983 -4.22118,0.82277 -9.18167,0.82277 -4.96049,0 -9.18167,-0.82277 -4.22118,-0.82278 -6.67757,-2.22983 -2.4564,-1.40707 -2.4564,-3.05261 v -4.054245 q 2.83797,2.00327 7.75076,3.02876 4.91279,1.025485 10.56488,1.025485 z m 0,-9.157825 q 5.6521,0 10.56489,-1.02548 4.91279,-1.02549 7.75076,-3.02876 v 4.05424 q 0,1.64555 -2.4564,3.05261 -2.45639,1.40706 -6.67758,2.22984 -4.22118,0.82277 -9.18167,0.82277 -4.96049,0 -9.18167,-0.82277 -4.22118,-0.82278 -6.67757,-2.22984 -2.4564,-1.40706 -2.4564,-3.05261 v -4.05424 q 2.83797,2.00327 7.75076,3.02876 4.91279,1.02548 10.56488,1.02548 z m 0,-27.473472 q 4.96049,0 9.18167,0.82277 4.22119,0.82277 6.67758,2.22984 2.4564,1.40706 2.4564,3.05261 v 3.05261 q 0,1.64554 -2.4564,3.0526 -2.45639,1.40707 -6.67758,2.22984 -4.22118,0.82277 -9.18167,0.82277 -4.96049,0 -9.18167,-0.82277 -4.22118,-0.82277 -6.67757,-2.22984 -2.4564,-1.40706 -2.4564,-3.0526 v -3.05261 q 0,-1.64555 2.4564,-3.05261 2.45639,-1.40707 6.67757,-2.22984 4.22118,-0.82277 9.18167,-0.82277 z"
       inkscape:connector-curvature="0"
       style="fill:#c8ab37;stroke-width:0.02384849" />
    <path
       id="path883"
       d="m -76.150533,207.49611 h -37.806027 c -2.98396,0 -5.40085,2.41689 -5.40085,5.40086 v 59.40947 c 0,2.98397 2.41689,5.40085 5.40085,5.40085 h 37.806027 c 2.98398,0 5.400863,-2.41688 5.400863,-5.40085 v -59.40947 c 0,-2.98397 -2.416883,-5.40086 -5.400863,-5.40086 z m -18.903006,49.95796 c -2.235956,0 -4.050645,-1.81469 -4.050645,-4.05065 0,-2.23595 1.814689,-4.05064 4.050645,-4.05064 2.235956,0 4.050645,1.81469 4.050645,4.05064 0,2.23596 -1.814689,4.05065 -4.050645,4.05065 z m -10.801731,-20.25323 c -1.49063,0 -2.70042,-1.20979 -2.70042,-2.70042 0,-1.49064 1.20979,-2.70043 2.70042,-2.70043 1.49064,0 2.70044,1.20979 2.70044,2.70043 0,1.49063 -1.2098,2.70042 -2.70044,2.70042 z m 10.801731,32.40516 c -1.490637,0 -2.700436,-1.20979 -2.700436,-2.70043 0,-1.49063 1.209799,-2.70042 2.700436,-2.70042 1.490638,0 2.700427,1.20979 2.700427,2.70042 0,1.49064 -1.209789,2.70043 -2.700427,2.70043 z m -10.801731,-48.60774 c -1.49063,0 -2.70042,-1.20979 -2.70042,-2.70042 0,-1.49064 1.20979,-2.70043 2.70042,-2.70043 1.49064,0 2.70044,1.20979 2.70044,2.70043 0,1.49063 -1.2098,2.70042 -2.70044,2.70042 z m 29.704737,18.90302 h -37.806027 v -10.80173 h 37.806027 z m 0,-16.20258 h -37.806027 v -10.80173 h 37.806027 z"
       inkscape:connector-curvature="0"
       style="fill:#006680;stroke-width:2.70042992" />
    <path
       style="fill:#6c5353;stroke-width:1.60849869"
       inkscape:connector-curvature="0"
       d="m -373.2701,130.1474 h -22.51898 c -1.77739,0 -3.21699,1.43961 -3.21699,3.217 v 35.38697 c 0,1.77739 1.4396,3.21699 3.21699,3.21699 h 22.51898 c 1.7774,0 3.21701,-1.4396 3.21701,-3.21699 V 133.3644 c 0,-1.77739 -1.43961,-3.217 -3.21701,-3.217 z m -11.25948,29.75722 c -1.33184,0 -2.41275,-1.0809 -2.41275,-2.41274 0,-1.33184 1.08091,-2.41275 2.41275,-2.41275 1.33183,0 2.41274,1.08091 2.41274,2.41275 0,1.33184 -1.08091,2.41274 -2.41274,2.41274 z m -6.434,-12.06373 c -0.88789,0 -1.60849,-0.72061 -1.60849,-1.6085 0,-0.88789 0.7206,-1.60849 1.60849,-1.60849 0.88789,0 1.6085,0.7206 1.6085,1.60849 0,0.88789 -0.72061,1.6085 -1.6085,1.6085 z m 6.434,19.30198 c -0.88789,0 -1.60851,-0.72061 -1.60851,-1.6085 0,-0.88789 0.72062,-1.6085 1.60851,-1.6085 0.88789,0 1.6085,0.72061 1.6085,1.6085 0,0.88789 -0.72061,1.6085 -1.6085,1.6085 z m -6.434,-28.95298 c -0.88789,0 -1.60849,-0.7206 -1.60849,-1.60849 0,-0.88789 0.7206,-1.6085 1.60849,-1.6085 0.88789,0 1.6085,0.72061 1.6085,1.6085 0,0.88789 -0.72061,1.60849 -1.6085,1.60849 z m 17.69348,11.2595 h -22.51898 v -6.434 h 22.51898 z m 0,-9.65099 h -22.51898 v -6.434 h 22.51898 z"
       id="path897" />
    <text
       xml:space="preserve"
       style="font-style:normal;font-variant:normal;font-weight:normal;font-stretch:normal;font-size:14.11111069px;line-height:1.25;font-family:sans-serif;-inkscape-font-specification:'sans-serif, Normal';font-variant-ligatures:normal;font-variant-caps:normal;font-variant-numeric:normal;font-feature-settings:normal;text-align:start;letter-spacing:0px;word-spacing:0px;writing-mode:lr-tb;text-anchor:start;fill:#000000;fill-opacity:1;stroke:none;stroke-width:0.26458332"
       x="-120.75592"
       y="296.19034"
       id="text920"><tspan
         sodipodi:role="line"
         id="tspan918"
         x="-120.75592"
         y="296.19034"
         style="font-style:normal;font-variant:normal;font-weight:normal;font-stretch:normal;font-size:14.11111069px;font-family:sans-serif;-inkscape-font-specification:'sans-serif, Normal';font-variant-ligatures:normal;font-variant-caps:normal;font-variant-numeric:normal;font-feature-settings:normal;text-align:start;writing-mode:lr-tb;text-anchor:start;stroke-width:0.26458332">Cliente</tspan></text>
    <text
       xml:space="preserve"
       style="font-style:normal;font-variant:normal;font-weight:normal;font-stretch:normal;font-size:14.11111069px;line-height:1.25;font-family:sans-serif;-inkscape-font-specification:'sans-serif, Normal';font-variant-ligatures:normal;font-variant-caps:normal;font-variant-numeric:normal;font-feature-settings:normal;text-align:start;letter-spacing:0px;word-spacing:0px;writing-mode:lr-tb;text-anchor:start;fill:#000000;fill-opacity:1;stroke:none;stroke-width:0.26458332"
       x="-414.73926"
       y="64.300179"
       id="text924"><tspan
         sodipodi:role="line"
         x="-414.73926"
         y="64.300179"
         style="font-style:normal;font-variant:normal;font-weight:normal;font-stretch:normal;font-size:14.11111069px;font-family:sans-serif;-inkscape-font-specification:'sans-serif, Normal';font-variant-ligatures:normal;font-variant-caps:normal;font-variant-numeric:normal;font-feature-settings:normal;text-align:start;writing-mode:lr-tb;text-anchor:start;stroke-width:0.26458332"
         id="tspan938">Serviço de Nomes</tspan></text>
    <text
       xml:space="preserve"
       style="font-style:normal;font-variant:normal;font-weight:normal;font-stretch:normal;font-size:14.11111069px;line-height:1.25;font-family:sans-serif;-inkscape-font-specification:'sans-serif, Normal';font-variant-ligatures:normal;font-variant-caps:normal;font-variant-numeric:normal;font-feature-settings:normal;text-align:start;letter-spacing:0px;word-spacing:0px;writing-mode:lr-tb;text-anchor:start;fill:#000000;fill-opacity:1;stroke:none;stroke-width:0.26458332"
       x="-162.9276"
       y="-53.182861"
       id="text928"><tspan
         sodipodi:role="line"
         x="-162.9276"
         y="-53.182861"
         style="font-style:normal;font-variant:normal;font-weight:normal;font-stretch:normal;font-size:14.11111069px;font-family:sans-serif;-inkscape-font-specification:'sans-serif, Normal';font-variant-ligatures:normal;font-variant-caps:normal;font-variant-numeric:normal;font-feature-settings:normal;text-align:start;writing-mode:lr-tb;text-anchor:start;stroke-width:0.26458332"
         id="tspan936">Serviço de Mensagens</tspan></text>
    <text
       xml:space="preserve"
       style="font-style:normal;font-variant:normal;font-weight:normal;font-stretch:normal;font-size:14.11111069px;line-height:1.25;font-family:sans-serif;-inkscape-font-specification:'sans-serif, Normal';font-variant-ligatures:normal;font-variant-caps:normal;font-variant-numeric:normal;font-feature-settings:normal;text-align:start;letter-spacing:0px;word-spacing:0px;writing-mode:lr-tb;text-anchor:start;fill:#000000;fill-opacity:1;stroke:none;stroke-width:0.26458332"
       x="74.862846"
       y="20.786509"
       id="text932"><tspan
         sodipodi:role="line"
         x="74.862846"
         y="20.786509"
         style="font-style:normal;font-variant:normal;font-weight:normal;font-stretch:normal;font-size:14.11111069px;font-family:sans-serif;-inkscape-font-specification:'sans-serif, Normal';font-variant-ligatures:normal;font-variant-caps:normal;font-variant-numeric:normal;font-feature-settings:normal;text-align:start;writing-mode:lr-tb;text-anchor:start;stroke-width:0.26458332"
         id="tspan934">Serviço de Autenticação</tspan></text>
    <path
       style="fill:none;stroke:#000000;stroke-width:1.06500006;stroke-linecap:butt;stroke-linejoin:miter;stroke-miterlimit:4;stroke-dasharray:none;stroke-opacity:1;marker-start:url(#marker5699);marker-end:url(#marker5409)"
       d="m -94.740414,112.05106 2e-6,83.91071"
       id="path27"
       inkscape:connector-curvature="0"
       sodipodi:nodetypes="cc" />
    <path
       style="fill:none;stroke:#000000;stroke-width:1.06500006;stroke-linecap:butt;stroke-linejoin:miter;stroke-miterlimit:4;stroke-dasharray:none;stroke-opacity:1;marker-start:url(#Arrow2Lstart);marker-end:url(#marker4875)"
       d="m 44.538249,160.63771 -95.25,65.01188"
       id="path29"
       inkscape:connector-curvature="0"
       sodipodi:nodetypes="cc" />
    <path
       style="fill:none;stroke:#000000;stroke-width:1.06500006;stroke-linecap:butt;stroke-linejoin:miter;stroke-miterlimit:4;stroke-dasharray:none;stroke-opacity:1;marker-start:url(#marker5791);marker-end:url(#marker5537)"
       d="m 314.83381,84.286503 -52.91667,1e-5"
       id="path31"
       inkscape:connector-curvature="0"
       sodipodi:nodetypes="cc" />
    <path
       style="fill:none;stroke:#000000;stroke-width:1.06500006;stroke-linecap:butt;stroke-linejoin:miter;stroke-miterlimit:4;stroke-dasharray:none;stroke-opacity:1;marker-start:url(#marker5699-3);marker-end:url(#marker5409-7)"
       d="m -224.62531,183.26063 86.29906,38.62034"
       id="path27-3"
       inkscape:connector-curvature="0"
       sodipodi:nodetypes="cc" />
    <text
       xml:space="preserve"
       style="font-style:normal;font-variant:normal;font-weight:normal;font-stretch:normal;font-size:14.11111069px;line-height:1.25;font-family:sans-serif;-inkscape-font-specification:'sans-serif, Normal';font-variant-ligatures:normal;font-variant-caps:normal;font-variant-numeric:normal;font-feature-settings:normal;text-align:start;letter-spacing:0px;word-spacing:0px;writing-mode:lr-tb;text-anchor:start;fill:#000000;fill-opacity:1;stroke:none;stroke-width:0.26458332"
       x="323.90524"
       y="57.072216"
       id="text8120"><tspan
         sodipodi:role="line"
         id="tspan8118"
         x="323.90524"
         y="57.072216"
         style="font-style:normal;font-variant:normal;font-weight:normal;font-stretch:normal;font-size:14.11111069px;font-family:sans-serif;-inkscape-font-specification:'sans-serif, Normal';font-variant-ligatures:normal;font-variant-caps:normal;font-variant-numeric:normal;font-feature-settings:normal;text-align:start;writing-mode:lr-tb;text-anchor:start;stroke-width:0.26458332">MongoBD</tspan></text>
    <path
       style="fill:#6c5353;stroke-width:1.60849869"
       inkscape:connector-curvature="0"
       d="m -341.66554,86.958686 h -22.51898 c -1.77739,0 -3.21699,1.439608 -3.21699,3.216996 v 35.386978 c 0,1.77739 1.4396,3.217 3.21699,3.217 h 22.51898 c 1.7774,0 3.21701,-1.43961 3.21701,-3.217 V 90.175682 c 0,-1.777388 -1.43961,-3.216996 -3.21701,-3.216996 z m -11.25948,29.757234 c -1.33184,0 -2.41275,-1.08091 -2.41275,-2.41275 0,-1.33183 1.08091,-2.41275 2.41275,-2.41275 1.33183,0 2.41274,1.08092 2.41274,2.41275 0,1.33184 -1.08091,2.41275 -2.41274,2.41275 z m -6.434,-12.06374 c -0.88789,0 -1.60849,-0.72061 -1.60849,-1.6085 0,-0.88789 0.7206,-1.6085 1.60849,-1.6085 0.88789,0 1.6085,0.72061 1.6085,1.6085 0,0.88789 -0.72061,1.6085 -1.6085,1.6085 z m 6.434,19.30198 c -0.88789,0 -1.60851,-0.72061 -1.60851,-1.6085 0,-0.88789 0.72062,-1.60849 1.60851,-1.60849 0.88789,0 1.6085,0.7206 1.6085,1.60849 0,0.88789 -0.72061,1.6085 -1.6085,1.6085 z m -6.434,-28.952982 c -0.88789,0 -1.60849,-0.720606 -1.60849,-1.608493 0,-0.887892 0.7206,-1.608498 1.60849,-1.608498 0.88789,0 1.6085,0.720606 1.6085,1.608498 0,0.887887 -0.72061,1.608493 -1.6085,1.608493 z m 17.69348,11.259502 h -22.51898 v -6.434004 h 22.51898 z m 0,-9.650997 h -22.51898 v -6.434001 h 22.51898 z"
       id="path897-5" />
    <path
       style="fill:#6c5353;stroke-width:1.60849869"
       inkscape:connector-curvature="0"
       d="m -296.91892,136.27902 h -22.51898 c -1.77739,0 -3.21699,1.4396 -3.21699,3.21699 v 35.38697 c 0,1.77739 1.4396,3.217 3.21699,3.217 h 22.51898 c 1.7774,0 3.21702,-1.43961 3.21702,-3.217 v -35.38697 c 0,-1.77739 -1.43962,-3.21699 -3.21702,-3.21699 z m -11.25948,29.75722 c -1.33184,0 -2.41275,-1.08091 -2.41275,-2.41275 0,-1.33183 1.08091,-2.41274 2.41275,-2.41274 1.33183,0 2.41274,1.08091 2.41274,2.41274 0,1.33184 -1.08091,2.41275 -2.41274,2.41275 z m -6.434,-12.06374 c -0.88789,0 -1.60849,-0.72061 -1.60849,-1.60849 0,-0.8879 0.7206,-1.6085 1.60849,-1.6085 0.88789,0 1.6085,0.7206 1.6085,1.6085 0,0.88788 -0.72061,1.60849 -1.6085,1.60849 z m 6.434,19.30198 c -0.88789,0 -1.60851,-0.72061 -1.60851,-1.6085 0,-0.88789 0.72062,-1.60849 1.60851,-1.60849 0.88789,0 1.6085,0.7206 1.6085,1.60849 0,0.88789 -0.72061,1.6085 -1.6085,1.6085 z m -6.434,-28.95297 c -0.88789,0 -1.60849,-0.72061 -1.60849,-1.60849 0,-0.8879 0.7206,-1.6085 1.60849,-1.6085 0.88789,0 1.6085,0.7206 1.6085,1.6085 0,0.88788 -0.72061,1.60849 -1.6085,1.60849 z m 17.69348,11.25949 h -22.51898 v -6.43399 h 22.51898 z m 0,-9.65099 h -22.51898 v -6.434 h 22.51898 z"
       id="path897-5-6" />
    <path
       style="fill:#6c5353;stroke-width:1.60849869"
       inkscape:connector-curvature="0"
       d="m -265.16892,87.898063 h -22.51898 c -1.77739,0 -3.21699,1.439608 -3.21699,3.216997 v 35.38698 c 0,1.77738 1.4396,3.21699 3.21699,3.21699 h 22.51898 c 1.7774,0 3.21702,-1.43961 3.21702,-3.21699 V 91.11506 c 0,-1.777389 -1.43962,-3.216997 -3.21702,-3.216997 z m -11.25948,29.757227 c -1.33184,0 -2.41275,-1.08091 -2.41275,-2.41275 0,-1.33183 1.08091,-2.41274 2.41275,-2.41274 1.33183,0 2.41274,1.08091 2.41274,2.41274 0,1.33184 -1.08091,2.41275 -2.41274,2.41275 z m -6.434,-12.06374 c -0.88789,0 -1.60849,-0.72061 -1.60849,-1.60849 0,-0.88789 0.7206,-1.6085 1.60849,-1.6085 0.88789,0 1.6085,0.72061 1.6085,1.6085 0,0.88788 -0.72061,1.60849 -1.6085,1.60849 z m 6.434,19.30198 c -0.88789,0 -1.60851,-0.7206 -1.60851,-1.6085 0,-0.88788 0.72062,-1.60849 1.60851,-1.60849 0.88789,0 1.6085,0.72061 1.6085,1.60849 0,0.8879 -0.72061,1.6085 -1.6085,1.6085 z m -6.434,-28.952974 c -0.88789,0 -1.60849,-0.720606 -1.60849,-1.608493 0,-0.887893 0.7206,-1.608498 1.60849,-1.608498 0.88789,0 1.6085,0.720605 1.6085,1.608498 0,0.887887 -0.72061,1.608493 -1.6085,1.608493 z m 17.69348,11.259504 h -22.51898 v -6.43401 h 22.51898 z m 0,-9.650999 H -287.6879 V 91.11506 h 22.51898 z"
       id="path897-5-6-2" />
    <text
       xml:space="preserve"
       style="font-style:normal;font-variant:normal;font-weight:normal;font-stretch:normal;font-size:14.11111069px;line-height:1.25;font-family:sans-serif;-inkscape-font-specification:'sans-serif, Normal';font-variant-ligatures:normal;font-variant-caps:normal;font-variant-numeric:normal;font-feature-settings:normal;text-align:start;letter-spacing:0px;word-spacing:0px;writing-mode:lr-tb;text-anchor:start;fill:#000000;fill-opacity:1;stroke:none;stroke-width:0.26458332"
       x="-410.23196"
       y="213.88593"
       id="text8173"><tspan
         sodipodi:role="line"
         id="tspan8171"
         x="-410.23196"
         y="213.88593"
         style="font-style:normal;font-variant:normal;font-weight:normal;font-stretch:normal;font-size:14.11111069px;font-family:sans-serif;-inkscape-font-specification:'sans-serif, Normal';font-variant-ligatures:normal;font-variant-caps:normal;font-variant-numeric:normal;font-feature-settings:normal;text-align:start;writing-mode:lr-tb;text-anchor:start;stroke-width:0.26458332">172.17.1.0/24</tspan></text>
    <rect
       style="fill:#ffffff;stroke:#666666;stroke-width:1.8107301;stroke-miterlimit:4;stroke-dasharray:none"
       id="rect8122-4"
       width="210.9747"
       height="142.11612"
       x="-160.72942"
       y="-43.646164" />
    <path
       style="fill:#6c5353;stroke-width:1.60849869"
       inkscape:connector-curvature="0"
       d="m -103.38542,47.849955 h -22.51905 c -1.77738,0 -3.21698,1.439609 -3.21698,3.216998 v 35.386976 c 0,1.777388 1.4396,3.216992 3.21698,3.216992 h 22.51905 c 1.77741,0 3.21703,-1.439604 3.21703,-3.216992 V 51.066953 c 0,-1.777389 -1.43962,-3.216998 -3.21703,-3.216998 z m -11.25954,29.757228 c -1.33185,0 -2.41276,-1.080911 -2.41276,-2.412749 0,-1.331833 1.08091,-2.412743 2.41276,-2.412743 1.33184,0 2.41275,1.08091 2.41275,2.412743 0,1.331838 -1.08091,2.412749 -2.41275,2.412749 z m -6.43401,-12.063741 c -0.88789,0 -1.60849,-0.720606 -1.60849,-1.608495 0,-0.887891 0.7206,-1.608497 1.60849,-1.608497 0.88789,0 1.6085,0.720606 1.6085,1.608497 0,0.887889 -0.72061,1.608495 -1.6085,1.608495 z m 6.43401,19.301981 c -0.8879,0 -1.60852,-0.720606 -1.60852,-1.608497 0,-0.887889 0.72062,-1.608495 1.60852,-1.608495 0.8879,0 1.60851,0.720606 1.60851,1.608495 0,0.887891 -0.72061,1.608497 -1.60851,1.608497 z m -6.43401,-28.952976 c -0.88789,0 -1.60849,-0.720606 -1.60849,-1.608492 0,-0.887891 0.7206,-1.608497 1.60849,-1.608497 0.88789,0 1.6085,0.720606 1.6085,1.608497 0,0.887886 -0.72061,1.608492 -1.6085,1.608492 z m 17.69355,11.2595 h -22.51905 v -6.434002 h 22.51905 z m 0,-9.650994 h -22.51905 v -6.434 h 22.51905 z"
       id="path897-0" />
    <path
       style="fill:#6c5353;stroke-width:1.60849869"
       inkscape:connector-curvature="0"
       d="m -103.8532,-35.824052 h -22.51905 c -1.77739,0 -3.21699,1.439609 -3.21699,3.216997 V 2.7799192 c 0,1.777386 1.4396,3.216992 3.21699,3.216992 h 22.51905 c 1.77741,0 3.21703,-1.439606 3.21703,-3.216992 V -32.607055 c 0,-1.777388 -1.43962,-3.216997 -3.21703,-3.216997 z m -11.25954,29.7572249 c -1.33185,0 -2.41276,-1.08091 -2.41276,-2.412748 0,-1.331833 1.08091,-2.4127459 2.41276,-2.4127459 1.33183,0 2.41275,1.0809129 2.41275,2.4127459 0,1.331838 -1.08092,2.412748 -2.41275,2.412748 z m -6.43401,-12.0637429 c -0.88789,0 -1.60849,-0.720605 -1.60849,-1.608491 0,-0.88789 0.7206,-1.608496 1.60849,-1.608496 0.88789,0 1.6085,0.720606 1.6085,1.608496 0,0.887886 -0.72061,1.608491 -1.6085,1.608491 z m 6.43401,19.3019842 c -0.8879,0 -1.60852,-0.72060594 -1.60852,-1.60849691 0,-0.88788899 0.72062,-1.60849499 1.60852,-1.60849499 0.88789,0 1.6085,0.720606 1.6085,1.60849499 0,0.88789097 -0.72061,1.60849691 -1.6085,1.60849691 z m -6.43401,-28.9529732 c -0.88789,0 -1.60849,-0.720606 -1.60849,-1.608493 0,-0.887892 0.7206,-1.608498 1.60849,-1.608498 0.88789,0 1.6085,0.720606 1.6085,1.608498 0,0.887887 -0.72061,1.608493 -1.6085,1.608493 z m 17.69355,11.259494 h -22.51905 v -6.433996 h 22.51905 z m 0,-9.650989 h -22.51905 v -6.434001 h 22.51905 z"
       id="path897-5-0" />
    <path
       style="fill:#6c5353;stroke-width:1.60849869"
       inkscape:connector-curvature="0"
       d="M -7.0481895,45.397814 H -29.567148 c -1.777389,0 -3.21699,1.439609 -3.21699,3.216998 V 84.00179 c 0,1.77738 1.439601,3.21699 3.21699,3.21699 h 22.5189585 c 1.7774,0 3.21703,-1.43961 3.21703,-3.21699 V 48.614812 c 0,-1.777389 -1.43963,-3.216998 -3.21703,-3.216998 z M -18.307665,75.155042 c -1.331839,0 -2.412748,-1.080911 -2.412748,-2.412749 0,-1.331831 1.080909,-2.412743 2.412748,-2.412743 1.331829,0 2.412739,1.080912 2.412739,2.412743 0,1.331838 -1.08091,2.412749 -2.412739,2.412749 z m -6.433996,-12.063738 c -0.88789,0 -1.608479,-0.720609 -1.608479,-1.608495 0,-0.887892 0.720589,-1.608497 1.608479,-1.608497 0.887889,0 1.608499,0.720605 1.608499,1.608497 0,0.887886 -0.72061,1.608495 -1.608499,1.608495 z m 6.433996,19.301981 c -0.887889,0 -1.608499,-0.720609 -1.608499,-1.6085 0,-0.887886 0.72061,-1.608492 1.608499,-1.608492 0.88789,0 1.608499,0.720606 1.608499,1.608492 0,0.887891 -0.720609,1.6085 -1.608499,1.6085 z m -6.433996,-28.952976 c -0.88789,0 -1.608479,-0.720606 -1.608479,-1.608495 0,-0.887891 0.720589,-1.608497 1.608479,-1.608497 0.887889,0 1.608499,0.720606 1.608499,1.608497 0,0.887889 -0.72061,1.608495 -1.608499,1.608495 z M -7.0481895,64.699806 H -29.567148 v -6.434 h 22.5189585 z m 0,-9.650992 H -29.567148 v -6.434002 h 22.5189585 z"
       id="path897-5-6-4" />
    <path
       style="fill:#6c5353;stroke-width:1.60849869"
       inkscape:connector-curvature="0"
       d="m 11.130237,-32.211979 h -22.51897 c -1.777391,0 -3.216992,1.439609 -3.216992,3.216998 V 6.3919929 c 0,1.7773863 1.439601,3.2169914 3.216992,3.2169914 h 22.51897 c 1.7774,0 3.21703,-1.4396051 3.21703,-3.2169914 V -28.994981 c 0,-1.777389 -1.43963,-3.216998 -3.21703,-3.216998 z M -0.12922586,-2.4547536 c -1.33184934,0 -2.41275874,-1.08091 -2.41275874,-2.412749 0,-1.331833 1.0809094,-2.412743 2.41275874,-2.412743 1.33181796,0 2.41272736,1.08091 2.41272736,2.412743 0,1.331839 -1.0809094,2.412749 -2.41272736,2.412749 z M -6.5632328,-14.518493 c -0.8878901,0 -1.60849,-0.720606 -1.60849,-1.608491 0,-0.887891 0.7205999,-1.608497 1.60849,-1.608497 0.88789,0 1.6085097,0.720606 1.6085097,1.608497 0,0.887885 -0.7206197,1.608491 -1.6085097,1.608491 z m 6.43400694,19.3019809 c -0.88789974,0 -1.60850904,-0.7206065 -1.60850904,-1.6084985 0,-0.887889 0.7206093,-1.608494 1.60850904,-1.608494 0.88787829,0 1.60849796,0.720605 1.60849796,1.608494 0,0.887892 -0.72061967,1.6084985 -1.60849796,1.6084985 z M -6.5632328,-24.169485 c -0.8878901,0 -1.60849,-0.720606 -1.60849,-1.608493 0,-0.887893 0.7205999,-1.608498 1.60849,-1.608498 0.88789,0 1.6085097,0.720605 1.6085097,1.608498 0,0.887887 -0.7206197,1.608493 -1.6085097,1.608493 z m 17.6934698,11.259497 h -22.51897 v -6.434 h 22.51897 z m 0,-9.650992 h -22.51897 v -6.434001 h 22.51897 z"
       id="path897-5-6-2-6" />
    <rect
       style="fill:#ffffff;stroke:#666666;stroke-width:1.48520505;stroke-miterlimit:4;stroke-dasharray:none"
       id="rect8122-4-2"
       width="169.98343"
       height="118.66769"
       x="74.440964"
       y="33.654537" />
    <path
       style="fill:#6c5353;stroke-width:1.60849869"
       inkscape:connector-curvature="0"
       d="M 116.36769,88.302955 H 93.848713 c -1.77739,0 -3.21699,1.43961 -3.21699,3.217 v 35.386975 c 0,1.77739 1.4396,3.21699 3.21699,3.21699 h 22.518977 c 1.7774,0 3.21701,-1.4396 3.21701,-3.21699 V 91.519955 c 0,-1.77739 -1.43961,-3.217 -3.21701,-3.217 z m -11.25948,29.757225 c -1.33184,0 -2.41275,-1.08091 -2.41275,-2.41275 0,-1.33183 1.08091,-2.41274 2.41275,-2.41274 1.33183,0 2.41274,1.08091 2.41274,2.41274 0,1.33184 -1.08091,2.41275 -2.41274,2.41275 z m -6.433997,-12.06374 c -0.88789,0 -1.60849,-0.72061 -1.60849,-1.60849 0,-0.8879 0.7206,-1.6085 1.60849,-1.6085 0.88789,0 1.608497,0.7206 1.608497,1.6085 0,0.88788 -0.720607,1.60849 -1.608497,1.60849 z m 6.433997,19.30198 c -0.88789,0 -1.60851,-0.7206 -1.60851,-1.6085 0,-0.88788 0.72062,-1.60849 1.60851,-1.60849 0.88789,0 1.6085,0.72061 1.6085,1.60849 0,0.8879 -0.72061,1.6085 -1.6085,1.6085 z M 98.674213,96.345455 c -0.88789,0 -1.60849,-0.72061 -1.60849,-1.6085 0,-0.88789 0.7206,-1.60849 1.60849,-1.60849 0.88789,0 1.608497,0.7206 1.608497,1.60849 0,0.88789 -0.720607,1.6085 -1.608497,1.6085 z M 116.36769,107.60495 H 93.848713 v -6.43401 h 22.518977 z m 0,-9.650995 H 93.848713 v -6.434 h 22.518977 z"
       id="path897-0-6" />
    <path
       style="fill:#6c5353;stroke-width:1.60849869"
       inkscape:connector-curvature="0"
       d="m 154.92126,48.321482 h -22.51898 c -1.77739,0 -3.21699,1.439609 -3.21699,3.216997 v 35.386976 c 0,1.77738 1.4396,3.21699 3.21699,3.21699 h 22.51898 c 1.7774,0 3.21701,-1.43961 3.21701,-3.21699 V 51.538479 c 0,-1.777388 -1.43961,-3.216997 -3.21701,-3.216997 z M 143.66178,78.07871 c -1.33184,0 -2.41275,-1.08091 -2.41275,-2.412748 0,-1.331833 1.08091,-2.412746 2.41275,-2.412746 1.33183,0 2.41274,1.080913 2.41274,2.412746 0,1.331838 -1.08091,2.412748 -2.41274,2.412748 z m -6.434,-12.063743 c -0.88789,0 -1.60849,-0.720606 -1.60849,-1.608492 0,-0.887891 0.7206,-1.608497 1.60849,-1.608497 0.88789,0 1.6085,0.720606 1.6085,1.608497 0,0.887886 -0.72061,1.608492 -1.6085,1.608492 z m 6.434,19.301984 c -0.88789,0 -1.60851,-0.720606 -1.60851,-1.608497 0,-0.887889 0.72062,-1.608495 1.60851,-1.608495 0.88789,0 1.6085,0.720606 1.6085,1.608495 0,0.887891 -0.72061,1.608497 -1.6085,1.608497 z m -6.434,-28.952975 c -0.88789,0 -1.60849,-0.720607 -1.60849,-1.608494 0,-0.887892 0.7206,-1.608498 1.60849,-1.608498 0.88789,0 1.6085,0.720606 1.6085,1.608498 0,0.887887 -0.72061,1.608494 -1.6085,1.608494 z m 17.69348,11.259496 h -22.51898 v -6.433999 h 22.51898 z m 0,-9.650991 h -22.51898 v -6.434002 h 22.51898 z"
       id="path897-5-0-7" />
    <path
       style="fill:#6c5353;stroke-width:1.60849869"
       inkscape:connector-curvature="0"
       d="m 192.71886,94.434575 h -22.51897 c -1.77739,0 -3.21699,1.43961 -3.21699,3.21699 v 35.386975 c 0,1.77738 1.4396,3.21699 3.21699,3.21699 h 22.51897 c 1.7774,0 3.21703,-1.43961 3.21703,-3.21699 V 97.651565 c 0,-1.77738 -1.43963,-3.21699 -3.21703,-3.21699 z M 181.45938,124.1918 c -1.33184,0 -2.41275,-1.08092 -2.41275,-2.41275 0,-1.33184 1.08091,-2.41275 2.41275,-2.41275 1.33183,0 2.41274,1.08091 2.41274,2.41275 0,1.33183 -1.08091,2.41275 -2.41274,2.41275 z m -6.434,-12.06374 c -0.88789,0 -1.60848,-0.72061 -1.60848,-1.6085 0,-0.88789 0.72059,-1.6085 1.60848,-1.6085 0.88789,0 1.6085,0.72061 1.6085,1.6085 0,0.88789 -0.72061,1.6085 -1.6085,1.6085 z m 6.434,19.30198 c -0.88789,0 -1.6085,-0.72061 -1.6085,-1.6085 0,-0.88789 0.72061,-1.60849 1.6085,-1.60849 0.88789,0 1.6085,0.7206 1.6085,1.60849 0,0.88789 -0.72061,1.6085 -1.6085,1.6085 z m -6.434,-28.95298 c -0.88789,0 -1.60848,-0.7206 -1.60848,-1.60849 0,-0.887885 0.72059,-1.608495 1.60848,-1.608495 0.88789,0 1.6085,0.72061 1.6085,1.608495 0,0.88789 -0.72061,1.60849 -1.6085,1.60849 z m 17.69348,11.2595 h -22.51897 v -6.434 h 22.51897 z m 0,-9.65099 h -22.51897 v -6.434005 h 22.51897 z"
       id="path897-5-6-4-5" />
    <path
       style="fill:#6c5353;stroke-width:1.60849869"
       inkscape:connector-curvature="0"
       d="m 224.46886,46.053626 h -22.51898 c -1.77739,0 -3.21699,1.439608 -3.21699,3.216997 v 35.386976 c 0,1.777376 1.4396,3.216986 3.21699,3.216986 h 22.51898 c 1.7774,0 3.21703,-1.43961 3.21703,-3.216986 V 49.270623 c 0,-1.777389 -1.43963,-3.216997 -3.21703,-3.216997 z m -11.25947,29.757227 c -1.33185,0 -2.41276,-1.08091 -2.41276,-2.412749 0,-1.331833 1.08091,-2.412743 2.41276,-2.412743 1.33182,0 2.41273,1.08091 2.41273,2.412743 0,1.331839 -1.08091,2.412749 -2.41273,2.412749 z m -6.43401,-12.063741 c -0.88789,0 -1.60849,-0.720606 -1.60849,-1.608492 0,-0.887891 0.7206,-1.608497 1.60849,-1.608497 0.88789,0 1.60851,0.720606 1.60851,1.608497 0,0.887886 -0.72062,1.608492 -1.60851,1.608492 z m 6.43401,19.301982 c -0.8879,0 -1.60851,-0.720606 -1.60851,-1.608498 0,-0.887889 0.72061,-1.608494 1.60851,-1.608494 0.88788,0 1.6085,0.720605 1.6085,1.608494 0,0.887892 -0.72062,1.608498 -1.6085,1.608498 z m -6.43401,-28.952975 c -0.88789,0 -1.60849,-0.720606 -1.60849,-1.608493 0,-0.887893 0.7206,-1.608498 1.60849,-1.608498 0.88789,0 1.60851,0.720605 1.60851,1.608498 0,0.887887 -0.72062,1.608493 -1.60851,1.608493 z m 17.69348,11.259499 h -22.51898 v -6.434002 h 22.51898 z m 0,-9.650994 h -22.51898 v -6.434001 h 22.51898 z"
       id="path897-5-6-2-6-6" />
    <path
       style="fill:none;stroke:#000000;stroke-width:1.06500006;stroke-linecap:butt;stroke-linejoin:miter;stroke-miterlimit:4;stroke-dasharray:none;stroke-opacity:1;marker-start:url(#marker5699-9);marker-end:url(#marker5409-72)"
       d="m -89.872004,-10.536789 67.666959,5e-6"
       id="path27-2"
       inkscape:connector-curvature="0"
       sodipodi:nodetypes="cc" />
    <path
       style="fill:none;stroke:#000000;stroke-width:0.93299174;stroke-linecap:butt;stroke-linejoin:miter;stroke-miterlimit:4;stroke-dasharray:none;stroke-opacity:1;marker-start:url(#marker5699-9-7);marker-end:url(#marker5409-72-1)"
       d="m -90.816833,71.376168 44.03417,5e-6"
       id="path27-2-2"
       inkscape:connector-curvature="0"
       sodipodi:nodetypes="cc" />
    <path
       sodipodi:nodetypes="cc"
       inkscape:connector-curvature="0"
       id="path13522"
       d="M -88.200674,48.439337 -23.206408,10.487069"
       style="fill:none;stroke:#000000;stroke-width:1.06500006;stroke-linecap:butt;stroke-linejoin:miter;stroke-miterlimit:4;stroke-dasharray:none;stroke-opacity:1;marker-start:url(#marker13526);marker-end:url(#marker13668)" />
    <path
       sodipodi:nodetypes="cc"
       inkscape:connector-curvature="0"
       id="path15223"
       d="m -115.11274,12.337638 -0.10219,29.451313"
       style="fill:none;stroke:#000000;stroke-width:1.06500006;stroke-linecap:butt;stroke-linejoin:miter;stroke-miterlimit:4;stroke-dasharray:none;stroke-opacity:1;marker-start:url(#marker15227);marker-end:url(#marker15393)" />
    <path
       style="fill:none;stroke:#000000;stroke-width:1.02098799;stroke-linecap:butt;stroke-linejoin:miter;stroke-miterlimit:4;stroke-dasharray:none;stroke-opacity:1;marker-start:url(#marker16947);marker-end:url(#marker17125)"
       d="M -0.1264478,14.327504 -16.804896,40.800828"
       id="path16943"
       inkscape:connector-curvature="0"
       sodipodi:nodetypes="cc" />
    <path
       sodipodi:nodetypes="cc"
       inkscape:connector-curvature="0"
       id="path19131"
       d="m -232.89215,92.075053 61.98586,-54.604689"
       style="fill:none;stroke:#000000;stroke-width:1.06500005;stroke-linecap:butt;stroke-linejoin:miter;stroke-miterlimit:4;stroke-dasharray:3.19500014,3.19500014;stroke-opacity:1;marker-start:url(#marker19135);stroke-dashoffset:0" />
    <path
       style="fill:none;stroke:#000000;stroke-width:1.06500006;stroke-linecap:butt;stroke-linejoin:miter;stroke-miterlimit:4;stroke-dasharray:3.19500014, 3.19500014;stroke-dashoffset:0;stroke-opacity:1;marker-start:url(#marker21989)"
       d="m -321.62563,235.33152 c 171.62307,167.82466 375.901057,78.62829 431.88688,-68.5027"
       id="path21985"
       inkscape:connector-curvature="0"
       sodipodi:nodetypes="cc" />
    <text
       id="text24105"
       y="115.53074"
       x="-48.883564"
       style="font-style:normal;font-variant:normal;font-weight:normal;font-stretch:normal;font-size:14.11111069px;line-height:1.25;font-family:sans-serif;-inkscape-font-specification:'sans-serif, Normal';font-variant-ligatures:normal;font-variant-caps:normal;font-variant-numeric:normal;font-feature-settings:normal;text-align:start;letter-spacing:0px;word-spacing:0px;writing-mode:lr-tb;text-anchor:start;fill:#000000;fill-opacity:1;stroke:none;stroke-width:0.26458332"
       xml:space="preserve"><tspan
         style="font-style:normal;font-variant:normal;font-weight:normal;font-stretch:normal;font-size:14.11111069px;font-family:sans-serif;-inkscape-font-specification:'sans-serif, Normal';font-variant-ligatures:normal;font-variant-caps:normal;font-variant-numeric:normal;font-feature-settings:normal;text-align:start;writing-mode:lr-tb;text-anchor:start;stroke-width:0.26458332"
         y="115.53074"
         x="-48.883564"
         id="tspan24103"
         sodipodi:role="line">172.17.2.0/24</tspan></text>
    <text
       xml:space="preserve"
       style="font-style:normal;font-variant:normal;font-weight:normal;font-stretch:normal;font-size:14.11111069px;line-height:1.25;font-family:sans-serif;-inkscape-font-specification:'sans-serif, Normal';font-variant-ligatures:normal;font-variant-caps:normal;font-variant-numeric:normal;font-feature-settings:normal;text-align:start;letter-spacing:0px;word-spacing:0px;writing-mode:lr-tb;text-anchor:start;fill:#000000;fill-opacity:1;stroke:none;stroke-width:0.26458332"
       x="141.41234"
       y="172.19186"
       id="text24109"><tspan
         sodipodi:role="line"
         id="tspan24107"
         x="141.41234"
         y="172.19186"
         style="font-style:normal;font-variant:normal;font-weight:normal;font-stretch:normal;font-size:14.11111069px;font-family:sans-serif;-inkscape-font-specification:'sans-serif, Normal';font-variant-ligatures:normal;font-variant-caps:normal;font-variant-numeric:normal;font-feature-settings:normal;text-align:start;writing-mode:lr-tb;text-anchor:start;stroke-width:0.26458332">172.17.3.0/24</tspan></text>
    <g
       id="g4876"
       transform="matrix(0.19424795,0,0,0.19424795,216.19309,120.89327)">
      <path
         id="path4870"
         d="M 115.4,30.7 67.1,2.9 C 66.3,2.4 65.2,2.2 64,2.2 c -1.2,0 -2.3,0.3 -3.1,0.7 l -48,27.9 c -1.7,1 -2.9,3.5 -2.9,5.4 v 55.7 c 0,1.1 0.2,2.4 1,3.5 l 106.8,-62 c -0.6,-1.2 -1.5,-2.1 -2.4,-2.7 z"
         inkscape:connector-curvature="0"
         style="fill:#9b4f96" />
      <path
         id="path4872"
         d="m 10.7,95.3 c 0.5,0.8 1.2,1.5 1.9,1.9 l 48.2,27.9 c 0.8,0.5 1.9,0.7 3.1,0.7 1.2,0 2.3,-0.3 3.1,-0.7 l 48,-27.9 c 1.7,-1 2.9,-3.5 2.9,-5.4 V 36.1 c 0,-0.9 -0.1,-1.9 -0.6,-2.8 z"
         inkscape:connector-curvature="0"
         style="fill:#68217a" />
      <path
         id="path4874"
         d="M 85.3,76.1 C 81.1,83.5 73.1,88.5 64,88.5 50.5,88.5 39.5,77.5 39.5,64 c 0,-13.5 11,-24.5 24.5,-24.5 9.1,0 17.1,5 21.3,12.5 l 13,-7.5 C 91.5,32.6 78.7,24.5 64,24.5 42.2,24.5 24.5,42.2 24.5,64 c 0,21.8 17.7,39.5 39.5,39.5 14.6,0 27.4,-8 34.2,-19.8 z M 97,66.2 97.9,61.9 h -4.2 v -4.7 h 5.1 L 100,51 h 4.9 l -1.2,6.1 h 3.8 l 1.2,-6.1 h 4.8 l -1.2,6.1 h 2.4 v 4.7 h -3.3 l -0.9,4.3 h 4.2 v 4.7 h -5.1 l -1.2,6 h -4.9 l 1.2,-6 h -3.8 l -1.2,6 h -4.8 l 1.2,-6 H 93.7 V 66.1 H 97 Z m 4.8,0 h 3.8 l 0.9,-4.3 h -3.8 z"
         inkscape:connector-curvature="0"
         style="fill:#ffffff" />
    </g>
    <g
       transform="matrix(0.00693552,0,0,-0.00693552,-274.03149,189.051)"
       inkscape:label="ink_ext_XXXXXX"
       id="g4933">
      <g
         transform="scale(0.1)"
         id="g4935">
        <g
           transform="scale(2.43632)"
           id="g4937">
          <path
             inkscape:connector-curvature="0"
             id="path4939"
             style="fill:#81cd39;fill-opacity:1;fill-rule:nonzero;stroke:none"
             d="m 6728.39,16126.1 c 404.17,231.4 930.62,232.4 1334.43,0 2031.58,-1147.9 4063.78,-2294 6094.98,-3442.7 382,-215.2 637.6,-640.4 633.7,-1080.6 V 4696.35 c 2.9,-458.44 -277.9,-893.77 -681,-1104.09 C 12085.6,2450.62 10061.7,1307.63 8037.21,165.989 7624.7,-69.8592 7087.7,-51.6757 6688.04,203.506 6080.98,555.429 5472.89,905.588 4865.78,1257.18 c -124.08,73.97 -263.92,132.83 -351.51,253.09 77.41,104.38 215.9,117.39 328.4,162.95 253.38,80.62 486.15,209.95 718.92,335.47 58.86,40.26 130.73,24.83 187.16,-11.21 519.11,-297.66 1033.65,-603.94 1554.48,-898.73 111.11,-64.16 223.62,21.01 318.6,73.96 1987.05,1123.05 3976.57,2241.83 5963.17,3365.2 73.7,35.42 114.4,113.58 108.4,194.23 1.4,2278.27 0.3,4556.96 0.7,6835.26 8.4,91.5 -44.5,175.6 -127.3,213.1 -2017.8,1136.4 -4034.67,2274.5 -6052.19,3411.2 -71.54,49.2 -165.98,49.3 -237.65,0.3 -2017.55,-1137 -4034.01,-2276.2 -6051.52,-3412.5 -82.44,-37.5 -137.77,-120.3 -127.95,-212.1 0.34,-2278.3 0,-4556.99 0,-6835.63 -7.17,-80.57 36.61,-157.08 109.72,-191.76 538.38,-305.3 1077.46,-608.42 1616.19,-912.69 303.51,-163.36 676.15,-260.44 1010.54,-135.29 295.08,105.86 501.9,406.97 496.28,720.27 2.79,2265.01 -1.39,4530.36 2.1,6795 -7.35,100.6 88,183.6 185.77,174.2 258.71,1.7 517.7,3.4 776.41,-0.7 107.95,2.4 182.29,-105.9 168.95,-207.2 -1.07,-2279.29 2.75,-4558.72 -1.77,-6838.02 0.7,-607.47 -248.86,-1268.47 -810.77,-1565.72 -692.22,-358.57 -1547.81,-282.51 -2231.67,61.32 -592.02,295.49 -1157,644.21 -1738.516,960.76 C 276.615,3801.1 -2.79462,4238.2 0.0513069,4696.31 V 11602.8 C -4.18793,12052.2 261.521,12485.1 655.468,12697.1 c 2024.542,1142.6 4048.762,2286 6072.922,3429" />
        </g>
        <g
           transform="scale(1.85748)"
           id="g4941">
          <path
             inkscape:connector-curvature="0"
             id="path4943"
             style="fill:#81cd39;fill-opacity:1;fill-rule:nonzero;stroke:none"
             d="m 11141.7,14876.4 c 1158.2,74.6 2398,44.2 3440.2,-526.3 806.9,-437.3 1254.2,-1354.9 1268.5,-2251.3 -22.5,-120.9 -149,-187.6 -264.4,-179.3 -336,0.4 -672.1,-4.6 -1008.1,2.2 -142.6,-5.5 -225.4,126 -243.3,252 -96.6,428.9 -330.5,853.7 -734.2,1060.6 -619.7,310.3 -1338.3,294.6 -2014.1,288.2 -493.3,-26.2 -1023.8,-68.9 -1441.8,-359 -320.84,-219.8 -418.28,-663.4 -303.77,-1020.7 107.99,-256.5 404.07,-339.3 646.37,-415.5 1395.7,-365.1 2874.7,-328.8 4243.8,-809.1 566.8,-195.9 1121.3,-576.6 1315.3,-1170.07 253.8,-795.43 142.6,-1746.13 -423.4,-2384.68 -458.9,-525.44 -1127.2,-811.47 -1793.9,-966.79 -886.8,-197.74 -1807.2,-202.8 -2707.8,-114.99 -846.9,96.58 -1728.18,319.03 -2381.92,896.05 -559.09,485.44 -832.14,1241.78 -805.01,1971.75 6.46,123.28 129.21,209.26 247.32,199.14 338.36,2.75 676.78,3.66 1015.14,-0.48 135.18,9.69 235.37,-107.14 242.32,-234.51 62.39,-408.68 215.99,-837.59 572.35,-1079.85 687.7,-443.72 1550.7,-413.36 2338.1,-425.74 652.4,28.91 1384.8,37.69 1917.2,468.86 280.9,245.98 364.1,657.45 288.2,1011.48 -82.2,298.84 -394.9,438.12 -663.4,529.15 -1377.8,435.88 -2873.3,277.69 -4237.81,770.58 -553.97,195.8 -1089.64,565.9 -1302.46,1135 -296.96,805.5 -160.91,1801.7 464.34,2418.7 609.59,613.7 1489.63,850.1 2326.23,934.7 v -0.1" />
        </g>
      </g>
    </g>
    <g
       id="g5007"
       transform="matrix(0.19674002,0,0,0.19674002,3.6116979,74.790568)"
       style="fill:#2dbcaf">
      <path
         id="path5003"
         d="m 16.2,24.1 c -0.4,0 -0.5,-0.2 -0.3,-0.5 L 18,20.9 c 0.2,-0.3 0.7,-0.5 1.1,-0.5 h 35.7 c 0.4,0 0.5,0.3 0.3,0.6 l -1.7,2.6 c -0.2,0.3 -0.7,0.6 -1,0.6 z M 1.1,33.3 C 0.7,33.3 0.6,33.1 0.8,32.8 L 2.9,30.1 C 3.1,29.8 3.6,29.6 4,29.6 h 45.6 c 0.4,0 0.6,0.3 0.5,0.6 l -0.8,2.4 c -0.1,0.4 -0.5,0.6 -0.9,0.6 z m 24.2,9.2 c -0.4,0 -0.5,-0.3 -0.3,-0.6 l 1.4,-2.5 c 0.2,-0.3 0.6,-0.6 1,-0.6 h 20 c 0.4,0 0.6,0.3 0.6,0.7 l -0.2,2.4 c 0,0.4 -0.4,0.7 -0.7,0.7 z M 129.1,22.3 c -6.3,1.6 -10.6,2.8 -16.8,4.4 -1.5,0.4 -1.6,0.5 -2.9,-1 -1.5,-1.7 -2.6,-2.8 -4.7,-3.8 -6.3,-3.1 -12.4,-2.2 -18.1,1.5 -6.8,4.4 -10.3,10.9 -10.2,19 0.1,8 5.6,14.6 13.5,15.7 6.8,0.9 12.5,-1.5 17,-6.6 0.9,-1.1 1.7,-2.3 2.7,-3.7 H 90.3 c -2.1,0 -2.6,-1.3 -1.9,-3 1.3,-3.1 3.7,-8.3 5.1,-10.9 0.3,-0.6 1,-1.6 2.5,-1.6 h 36.4 c -0.2,2.7 -0.2,5.4 -0.6,8.1 C 130.7,47.6 128,54.2 123.6,60 116.4,69.5 107,75.4 95.1,77 85.3,78.3 76.2,76.4 68.2,70.4 60.8,64.8 56.6,57.4 55.5,48.2 54.2,37.3 57.4,27.5 64,18.9 71.1,9.6 80.5,3.7 92,1.6 c 9.4,-1.7 18.4,-0.6 26.5,4.9 5.3,3.5 9.1,8.3 11.6,14.1 0.6,0.9 0.2,1.4 -1,1.7 z"
         inkscape:connector-curvature="0" />
      <path
         id="path5005"
         d="m 162.2,77.6 c -9.1,-0.2 -17.4,-2.8 -24.4,-8.8 -5.9,-5.1 -9.6,-11.6 -10.8,-19.3 -1.8,-11.3 1.3,-21.3 8.1,-30.2 7.3,-9.6 16.1,-14.6 28,-16.7 10.2,-1.8 19.8,-0.8 28.5,5.1 7.9,5.4 12.8,12.7 14.1,22.3 1.7,13.5 -2.2,24.5 -11.5,33.9 -6.6,6.7 -14.7,10.9 -24,12.8 -2.7,0.5 -5.4,0.6 -8,0.9 z M 186,37.2 c -0.1,-1.3 -0.1,-2.3 -0.3,-3.3 -1.8,-9.9 -10.9,-15.5 -20.4,-13.3 -9.3,2.1 -15.3,8 -17.5,17.4 -1.8,7.8 2,15.7 9.2,18.9 5.5,2.4 11,2.1 16.3,-0.6 7.9,-4.1 12.2,-10.5 12.7,-19.1 z"
         inkscape:connector-curvature="0" />
    </g>
  </g>
</svg>
